<?xml version="1.0" encoding="utf-8"?>
<!-- Generator: Adobe Illustrator 15.0.0, SVG Export Plug-In . SVG Version: 6.00 Build 0)  -->
<!DOCTYPE svg PUBLIC "-//W3C//DTD SVG 1.1//EN" "http://www.w3.org/Graphics/SVG/1.1/DTD/svg11.dtd">
<svg version="1.1" id="Layer_1" xmlns="http://www.w3.org/2000/svg" xmlns:xlink="http://www.w3.org/1999/xlink" x="0px" y="0px"
	 width="100px" height="100px" viewBox="0 0 100 100" enable-background="new 0 0 100 100" xml:space="preserve">
<rect x="-14" y="-39" display="none" width="150" height="222"/>
<ellipse display="none" fill="none" stroke="#FFFFFF" stroke-width="5" stroke-miterlimit="10" cx="49.374" cy="52.366" rx="33.894" ry="33.768"/>
<rect x="34.817" y="42.242" fill="#FFFFFF" width="10.22" height="25.703"/>
<polygon fill="#FFFFFF" points="35.818,43.243 30.362,43.243 50.174,29.066 50.174,43.243 "/>
<polygon fill="#FFFFFF" points="62.529,43.243 67.984,43.243 48.172,29.066 48.172,43.243 "/>
<rect x="53.447" y="42.242" fill="#FFFFFF" width="10.22" height="25.703"/>
<rect x="35.688" y="50.388" fill="#FFFFFF" width="26.188" height="4.706"/>
<path fill="#FFFFFF" d="M38.063,36.45c0,0-0.836-0.547-0.461-0.95c0.374-0.403,0.749-0.663,0.461-0.922
	c-0.288-0.26-0.26-0.347-0.346-0.52c-0.087-0.173-0.087-0.316-0.087-0.547s0.323-0.576,0.205-0.663
	c-0.118-0.086-0.118-0.403-0.118-0.403s-0.173-0.346-0.087-0.749c0.087-0.403,0.087-0.576,0.087-0.691s0.115-0.288,1.7-0.317
	c1.585-0.028,1.959,0.115,1.931,0.317c-0.029,0.201-0.115,0.374-0.202,0.489c-0.086,0.115,0.029,0.173,0.058,0.403
	c0.029,0.23,0.205,0.433,0.146,0.577c-0.059,0.144,0.013,1.613,0.013,1.613L38.063,36.45z"/>
<path display="none" fill="#FFFFFF" d="M38.821,26.598c0,0,0.342-1.677-0.821-2.293c-1.164-0.616-1.985-0.379-2.43,0.41
	c-0.446,0.789-0.206,1.473-0.206,1.473s-0.821,0.062-0.856-0.911c0,0-0.685,0.086-0.719-0.562c0,0-0.068-0.341,0.206-0.512
	c0,0-0.548,0.103-0.958-0.411c-0.411-0.514-0.547-1.027-1.164-0.753s-1.471-0.445-1.369-1.882c0.103-1.438-0.787-1.403-0.787-1.403
	s-1.164-0.308-0.583-0.89c0.583-0.582,4.549-2.84,6.604-3.525c2.055-0.685,3.885-1.438,5.091-1.369
	c1.207,0.068,0.968,1.164,0.42,1.643c0,0,0.379,0.273,0.31,0.821c-0.07,0.547-1.166,0.855-1.166,0.855s0.719,0.035,0.958,0.377
	c0.24,0.342-0.102,0.616-0.308,0.719c0,0,0.342,0.137,0.206,0.376C41.114,19,41.114,19,41.114,19s0.137,0.069,0.102,0.376
	c-0.034,0.308-0.386,0.685-0.386,0.685s0.043-0.141,0.317,0.22c0.274,0.362,0.342,0.533,0.103,0.772
	c-0.24,0.24-0.651,0.65-0.651,0.65s0.523-0.513,1.101-0.103s0.577,0.843,0.577,0.843s-1.267-0.569-1.951-0.159
	s-1.437,1.677-1.163,2.259c0.274,0.582,0.444,0.992,0.89,1.403c0.444,0.411,0.787,1.232,0.444,1.745
	c-0.342,0.514-0.444,0.993-0.444,0.993s-0.172-0.514-0.788-0.788C38.65,27.624,38.342,27.521,38.821,26.598z"/>
<path display="none" fill="#FFFFFF" d="M37.591,29.669c0,0,0.603,0.046,0.877-0.319s0.501-0.046,0.547,0
	c0.045,0.045,0.319,0.193,0.456,0.074s0.729-0.154,0.821,0s0.274,0.386,0.502,0.247c0.229-0.139,1.05-0.731,0.685-1.005
	c-0.365-0.274,0.366-0.092,0.502-0.73c0.137-0.639-0.251-1.141-0.251-1.141s0.525-0.046,0.708-0.547c0.183-0.503,0-1.05,0-1.05
	s-0.157-0.593,0.081-0.913s0.4-0.867,0-1.186s-0.994-0.457-0.994-0.457s0.867-0.046,1.003-0.547
	c0.137-0.502,0.512-0.547,0.234-0.776c-0.279-0.228-0.419-0.624-0.827-0.365c-0.408,0.259-0.923,0.137-0.923,0.137
	s-2.135,0.137-2.637,0.456c-0.502,0.32-2.646,0.228-2.646,0.228s-1.232,1.37-1.323,1.917c-0.092,0.547,0.045,1.392,0.411,1.745
	s0.065,0.217,0.261,0.901c0.195,0.685,0.742,1.004,0.742,1.004s0.548,0.404,0.776,0.452c0.229,0.049,0.502,0.095,0.274,0.323
	c-0.228,0.228-0.273,0.274-0.182,0.411c0.091,0.137,0.091,0.137,0.091,0.137l0.32,0.228C37.417,28.893,36.809,29.167,37.591,29.669z
	"/>
<rect x="34.817" y="42.242" fill="#FFFFFF" width="28.85" height="4.706"/>
</svg>
